<svg xmlns="http://www.w3.org/2000/svg" width="60" height="60" viewBox="0 0 60 60">
  <g id="_1" data-name="1" transform="translate(-287 -4171)">
    <path id="_5ad0999fe55a1e69a0ef4dc94c8ba4e4" data-name="5ad0999fe55a1e69a0ef4dc94c8ba4e4" d="M18.557,15.965a4.277,4.277,0,0,0-4.271,4.271v1.531H10V23.2H21.4V38.922h1.429V35.965h10v2.957h1.429V34.636h1.65a.714.714,0,0,0,0-1.429h-1.65V28.922h2.177a.714.714,0,1,0,0-1.429H34.257V23.2H50V21.768H34.257V20.236a4.271,4.271,0,1,0-8.543,0v1.531H22.829V20.236a4.277,4.277,0,0,0-4.271-4.271Zm0,1.429A2.82,2.82,0,0,1,21.4,20.236v1.531H15.714V20.236A2.821,2.821,0,0,1,18.557,17.394Zm11.429,0a2.82,2.82,0,0,1,2.843,2.843v1.531H27.143V20.236A2.821,2.821,0,0,1,29.986,17.394Zm-7.157,5.8h10v2.769h-10ZM15,24.636a.714.714,0,1,0,0,1.429h2.336a.714.714,0,1,0,0-1.429Zm4.291,0a.714.714,0,1,0,.714.714A.714.714,0,0,0,19.289,24.636Zm17.137,0a.714.714,0,1,0,0,1.429h2.336a.714.714,0,1,0,0-1.429Zm4.291,0a.714.714,0,1,0,.714.714A.714.714,0,0,0,40.717,24.636Zm4.277,0a.714.714,0,1,0,0,1.429h2.333a.714.714,0,1,0,0-1.429Zm4.291,0a.714.714,0,1,0,.714.714A.714.714,0,0,0,49.286,24.636ZM22.829,27.394h10v2.857h-10Zm-12.114.1a.714.714,0,1,0,.714.714A.714.714,0,0,0,10.714,27.494Zm1.957,0a.714.714,0,1,0,0,1.429h2.334a.714.714,0,1,0,0-1.429H12.67Zm28.04,0a.714.714,0,1,0,.714.714A.714.714,0,0,0,40.711,27.494Zm1.957,0a.714.714,0,1,0,0,1.429H45a.714.714,0,1,0,0-1.429H42.667ZM15,30.351a.714.714,0,1,0,.714.714A.714.714,0,0,0,15,30.351Zm1.957,0a.714.714,0,1,0,0,1.429h2.334a.714.714,0,1,0,0-1.429H16.953Zm19.471,0a.714.714,0,1,0,.714.714A.714.714,0,0,0,36.426,30.351Zm1.957,0a.714.714,0,0,0,0,1.429h2.334a.714.714,0,0,0,0-1.429H38.381Zm6.611,0a.714.714,0,1,0,.714.714A.714.714,0,0,0,44.994,30.351Zm1.957,0a.714.714,0,1,0,0,1.429h2.334a.714.714,0,1,0,0-1.429H46.95ZM22.829,31.679h10v2.857h-10ZM12.143,33.208a.714.714,0,0,0,0,1.429h2.336a.714.714,0,0,0,0-1.429H12.143Zm4.291,0a.714.714,0,1,0,.714.714A.714.714,0,0,0,16.434,33.208Zm21.429,0a.714.714,0,1,0,.714.714A.714.714,0,0,0,37.863,33.208Zm4.277,0a.714.714,0,0,0,0,1.429h2.336a.714.714,0,0,0,0-1.429Zm4.291,0a.714.714,0,1,0,.714.714A.714.714,0,0,0,46.431,33.208ZM15,36.065a.714.714,0,1,0,.714.714A.714.714,0,0,0,15,36.065Zm1.957,0a.714.714,0,0,0,0,1.429h2.334a.714.714,0,1,0,0-1.429H16.953Zm19.471,0a.714.714,0,1,0,.714.714A.714.714,0,0,0,36.426,36.065Zm1.957,0a.714.714,0,0,0,0,1.429h2.334a.714.714,0,0,0,0-1.429H38.381Zm6.611,0a.714.714,0,1,0,.714.714A.714.714,0,0,0,44.994,36.065Zm1.957,0a.714.714,0,0,0,0,1.429h2.334a.714.714,0,0,0,0-1.429H46.95Z" transform="translate(287 4173.606)"/>
    <path id="_61814d6839afeff0a256da40efe9ec3a" data-name="61814d6839afeff0a256da40efe9ec3a" d="M30,0A30,30,0,1,0,60,30,30.011,30.011,0,0,0,30,0Zm0,1.429A28.571,28.571,0,1,1,1.429,30,28.56,28.56,0,0,1,30,1.429Z" transform="translate(287 4171)"/>
  </g>
</svg>
