<svg xmlns="http://www.w3.org/2000/svg" width="60" height="60" viewBox="0 0 60 60">
  <path id="_2" data-name="2" d="M30,0A30,30,0,1,0,60,30,30.011,30.011,0,0,0,30,0Zm0,1.429A28.571,28.571,0,1,1,1.429,30,28.56,28.56,0,0,1,30,1.429Zm-8.214,11.42a5.309,5.309,0,0,0-5.357,5.231s0,.01,0,.014c0,.156,0,.314,0,.469H11.546a2.145,2.145,0,1,0,0,4.286h4.909c.031,5.477.019,10.987.019,16.471a.714.714,0,0,0,.717.714h3.569v6.42A2.142,2.142,0,0,0,22.9,48.571h20a2.141,2.141,0,0,0,2.143-2.117V22.849h3.4a2.146,2.146,0,1,0,0-4.286h-3.44c0-.147,0-.21-.011-.419a.714.714,0,0,0-.009-.083c.006.036,0-.043,0-.02a5.3,5.3,0,0,0-5.349-5.187H21.783l0-.006Zm0,1.437H39.643a3.863,3.863,0,0,1,3.929,3.8.714.714,0,0,0,.014.137c-.049-.226-.05-.214-.006.061,0,.074-.009.181-.014.276H42.171V18.27a2.135,2.135,0,0,0-4.27,0L37.88,28.563H17.919c0-3.5-.01-7-.061-10.474A3.862,3.862,0,0,1,21.786,14.286Zm18.25,3.279a.69.69,0,0,1,.707.706v.293H39.33v-.29A.69.69,0,0,1,40.036,17.564ZM11.549,19.993h4.889l.011,1.429h-4.9a.721.721,0,1,1,0-1.429Zm27.779,0h9.124a.722.722,0,1,1,0,1.429H39.323Zm-.009,2.857h4.294v23.6a.686.686,0,0,1-.714.689h-20a.686.686,0,0,1-.714-.689V40.029L38.569,40a.714.714,0,0,0,.711-.711l.039-16.44ZM17.913,29.993h2.8v2.844h-2.8l.006-2.846Zm4.227,0H25v2.844H22.14V29.991Zm4.286,0h2.857v2.844H26.426V29.991Zm4.286,0h2.857v2.844H30.711V29.991Zm4.286,0h2.877l-.006,2.844H35V29.991Zm-17.09,4.273H37.866l-.011,4.309L17.9,38.61c0-1.443.007-2.9.01-4.343Z"/>
</svg>
