<svg xmlns="http://www.w3.org/2000/svg" width="60" height="60" viewBox="0 0 60 60">
  <g id="_3" data-name="3" transform="translate(-547 -4164)">
    <g id="_8cae727d0c47f48818b741790ca8710f" data-name="8cae727d0c47f48818b741790ca8710f" transform="translate(561.286 4175.429)">
      <path id="Caminho_206" data-name="Caminho 206" d="M83.286,11H80.268a.6.6,0,0,0-.59.612V12.6H57.18v-.984A.6.6,0,0,0,56.59,11H53.573a.582.582,0,0,0-.573.612V47.631a.582.582,0,0,0,.572.612H56.59a.6.6,0,0,0,.59-.612V16.092H67.821v10.3a7.055,7.055,0,1,0,1.216,0v-10.3H79.678V47.631a.6.6,0,0,0,.59.612h3.017a.582.582,0,0,0,.572-.612V11.612A.582.582,0,0,0,83.286,11ZM74.268,33.422a5.839,5.839,0,1,1-5.839-5.839A5.839,5.839,0,0,1,74.268,33.422Zm-18.3,13.6H54.216V12.216h1.748Zm1.216-32.15V13.812h22.5v1.064Zm25.462,32.15H80.894V12.216h1.748Z" transform="translate(-53 -11)"/>
      <path id="Caminho_207" data-name="Caminho 207" d="M193.655,248.394a4.739,4.739,0,1,0,4.739-4.739A4.739,4.739,0,0,0,193.655,248.394Zm8.261,0a3.522,3.522,0,1,1-3.522-3.522A3.523,3.523,0,0,1,201.916,248.394Z" transform="translate(-182.964 -225.972)"/>
    </g>
    <path id="_61814d6839afeff0a256da40efe9ec3a" data-name="61814d6839afeff0a256da40efe9ec3a" d="M30,0A30,30,0,1,0,60,30,30.011,30.011,0,0,0,30,0Zm0,1.429A28.571,28.571,0,1,1,1.429,30,28.56,28.56,0,0,1,30,1.429Z" transform="translate(547 4164)"/>
  </g>
</svg>
