<svg xmlns="http://www.w3.org/2000/svg" width="60" height="60" viewBox="0 0 60 60">
  <g id="_5" data-name="5" transform="translate(-740 -4164)">
    <path id="_61814d6839afeff0a256da40efe9ec3a" data-name="61814d6839afeff0a256da40efe9ec3a" d="M30,0A30,30,0,1,0,60,30,30.011,30.011,0,0,0,30,0Zm0,1.429A28.571,28.571,0,1,1,1.429,30,28.56,28.56,0,0,1,30,1.429Z" transform="translate(740 4164)"/>
    <g id="_0cee98a75c1e33f7e9e94a2cd0d7e88f" data-name="0cee98a75c1e33f7e9e94a2cd0d7e88f" transform="translate(752.857 4181.143)">
      <path id="Caminho_208" data-name="Caminho 208" d="M24.134,13A11.134,11.134,0,1,0,35.269,24.134,11.134,11.134,0,0,0,24.134,13Zm0,21.1A9.962,9.962,0,1,1,34.1,24.134,9.962,9.962,0,0,1,24.134,34.1Z" transform="translate(-6.554 -11.242)"/>
      <path id="Caminho_209" data-name="Caminho 209" d="M8.446,16.446v-5.86H7.274V15.86H6.688V10.586H5.516V15.86H4.93V10.586H3.758V15.86H3.172V10.586H2v8.79a1.762,1.762,0,0,0,1.172,1.658V34.613A1.758,1.758,0,0,0,4.93,36.371h.586a1.758,1.758,0,0,0,1.758-1.758V21.034a1.762,1.762,0,0,0,1.172-1.658Zm-1.172,2.93a.586.586,0,0,1-.586.586.586.586,0,0,0-.586.586V34.613a.586.586,0,0,1-.586.586H4.93a.586.586,0,0,1-.586-.586V20.548a.586.586,0,0,0-.586-.586.586.586,0,0,1-.586-.586V17.032h4.1ZM36.575,10A5.28,5.28,0,0,0,31.3,15.274v7.618a1.758,1.758,0,0,0,1.758,1.758V35.785a.586.586,0,0,0,.586.586h2.93a.586.586,0,0,0,.586-.586v-25.2A.586.586,0,0,0,36.575,10Zm-.586,25.2H34.231V24.064a.586.586,0,0,0-.586-.586h-.586a.586.586,0,0,1-.586-.586V15.274a4.109,4.109,0,0,1,3.516-4.061Z" transform="translate(-2 -10)"/>
      <rect id="Retângulo_364" data-name="Retângulo 364" width="2" height="10" transform="translate(31.143 2.857)"/>
      <path id="Caminho_210" data-name="Caminho 210" d="M27.86,22a5.86,5.86,0,1,0,5.86,5.86A5.86,5.86,0,0,0,27.86,22Zm0,10.548a4.688,4.688,0,1,1,4.688-4.688,4.688,4.688,0,0,1-4.688,4.688Z" transform="translate(-10.28 -14.968)"/>
    </g>
  </g>
</svg>
